<svg width="27" height="21" viewBox="0 0 27 21" fill="none" xmlns="http://www.w3.org/2000/svg">
<path d="M2.00317 8.08492L1.00158 9.0865L0 8.08492L1.00158 7.08333L2.00317 8.08492ZM26.0865 19.4183C26.0865 19.794 25.9372 20.1543 25.6716 20.42C25.4059 20.6857 25.0456 20.8349 24.6698 20.8349C24.2941 20.8349 23.9338 20.6857 23.6681 20.42C23.4024 20.1543 23.2532 19.794 23.2532 19.4183H26.0865ZM8.08492 16.1698L1.00158 9.0865L3.00475 7.08333L10.0881 14.1667L8.08492 16.1698ZM1.00158 7.08333L8.08492 0L10.0881 2.00317L3.00475 9.0865L1.00158 7.08333ZM2.00317 6.66825H16.1698V9.50158H2.00317V6.66825ZM26.0865 16.5849V19.4183H23.2532V16.5849H26.0865ZM16.1698 6.66825C18.7999 6.66825 21.3222 7.71304 23.182 9.57277C25.0417 11.4325 26.0865 13.9549 26.0865 16.5849H23.2532C23.2532 14.7063 22.5069 12.9046 21.1785 11.5762C19.8501 10.2479 18.0485 9.50158 16.1698 9.50158V6.66825Z" fill="black"/>
</svg>
