<svg width="40" height="40" viewBox="0 0 40 40" fill="none" xmlns="http://www.w3.org/2000/svg">
<path d="M33.7407 8.4849C32.9533 7.69711 32.0184 7.07219 30.9894 6.64582C29.9604 6.21945 28.8575 6 27.7437 6C26.6298 6 25.5269 6.21945 24.4979 6.64582C23.4689 7.07219 22.534 7.69711 21.7466 8.4849L20.1124 10.1191L18.4782 8.4849C16.8877 6.89437 14.7305 6.00082 12.4812 6.00082C10.2318 6.00082 8.0746 6.89437 6.48407 8.4849C4.89355 10.0754 4 12.2326 4 14.482C4 16.7313 4.89355 18.8885 6.48407 20.4791L8.11824 22.1132L20.1124 34.1074L32.1066 22.1132L33.7407 20.4791C34.5285 19.6916 35.1535 18.7567 35.5798 17.7277C36.0062 16.6987 36.2256 15.5958 36.2256 14.482C36.2256 13.3681 36.0062 12.2652 35.5798 11.2362C35.1535 10.2072 34.5285 9.27231 33.7407 8.4849V8.4849Z" stroke="#B93F2B" stroke-width="3" stroke-linecap="round" stroke-linejoin="round"/>
</svg>
