<svg width="40" height="40" viewBox="0 0 40 40" fill="none" xmlns="http://www.w3.org/2000/svg">
<path fill-rule="evenodd" clip-rule="evenodd" d="M35.1087 1.92974H31.4621V0H35.1087C37.8101 0 40 2.15993 40 4.82434V8.68382H38.0435V4.82434C38.0435 3.2257 36.7295 1.92974 35.1087 1.92974ZM4.89135 0H7.98364V1.92974H4.89135C3.2705 1.92974 1.95654 3.2257 1.95654 4.82435V8.68382H0V4.82435C0 2.15994 2.18993 0 4.89135 0ZM38.0435 31.8407V35.1757C38.0435 36.7743 36.7295 38.0703 35.1087 38.0703H31.4621V40H35.1087C37.8101 40 40 37.8401 40 35.1757V31.8407H38.0435ZM7.98364 40H4.89135C2.18993 40 0 37.8401 0 35.1757V31.8407H1.95654V35.1757C1.95654 36.7743 3.2705 38.0703 4.89135 38.0703H7.98364V40Z" fill="white"/>
</svg>
