<svg width="34" height="34" viewBox="0 0 34 34" fill="none" xmlns="http://www.w3.org/2000/svg">
<path d="M10.625 3.84906L2.83337 8.39514V30.4583L10.625 27.2467V3.84906ZM13.4584 26.7891L15.9375 28.2526V23.7291C15.9372 22.0851 16.3608 20.4688 17.1673 19.0362C17.9738 17.6036 19.136 16.4032 20.5417 15.5507V7.21223L13.4584 3.02881V26.7891ZM31.1667 3.54164V16.0253C30.0598 15.213 28.7913 14.6477 27.4471 14.3679C26.1028 14.0881 24.7142 14.1001 23.375 14.4032V6.75323L31.1667 3.54164ZM25.5 33.5764L25.2125 33.3866C24.9518 33.2151 24.6911 33.0437 24.4375 32.8596C23.4823 32.1546 22.5975 31.359 21.7955 30.4838C20.3859 28.934 18.7709 26.5639 18.7709 23.7291C18.7709 22.8455 18.9449 21.9704 19.2831 21.154C19.6213 20.3376 20.1169 19.5958 20.7418 18.9709C21.3667 18.346 22.1085 17.8504 22.9249 17.5122C23.7413 17.174 24.6164 17 25.5 17C26.3837 17 27.2588 17.174 28.0752 17.5122C28.8916 17.8504 29.6334 18.346 30.2583 18.9709C30.8831 19.5958 31.3788 20.3376 31.717 21.154C32.0552 21.9704 32.2292 22.8455 32.2292 23.7291C32.2292 26.5639 30.6142 28.934 29.2046 30.4838C28.4026 31.359 27.5177 32.1546 26.5625 32.8596C26.309 33.0437 26.0483 33.2137 25.7876 33.3866L25.5 33.5764ZM27.2709 22.6666H23.7292V25.5H27.2709V22.6666Z" fill="black"/>
</svg>
