<svg width="1315" height="83" viewBox="0 0 1315 83" fill="none" xmlns="http://www.w3.org/2000/svg">
<path d="M60.1882 4.42874C56.6096 9.89478 55.1233 16.462 56.0009 22.9304C56.8619 29.4205 60.0433 35.3828 64.9605 39.7218" stroke="#577C8E" stroke-width="7" stroke-linecap="round" stroke-linejoin="round"/>
<path d="M4.29663 20.0056C38.6987 49.4419 66.8173 52.0579 83.1451 19.3176C58.761 -7.96865 32.3219 1.92861 6.89179 39.3419M67.1147 17.5131L67.1199 17.5517" stroke="#577C8E" stroke-width="7" stroke-linecap="round" stroke-linejoin="round"/>
<path d="M41.6507 18.9422C39.5845 23.1527 40.1033 27.0184 43.2072 30.5393" stroke="#577C8E" stroke-width="7" stroke-linecap="round" stroke-linejoin="round"/>
<path d="M189.439 32.1836C184.254 36.1704 180.682 41.8837 179.375 48.2795C178.045 54.6904 179.08 61.3645 182.29 67.0754" stroke="#577C8E" stroke-width="7" stroke-linecap="round" stroke-linejoin="round"/>
<path d="M131.519 28.5481C154.282 67.6345 179.97 79.3334 206.199 53.7772C192.185 20.009 163.952 20.677 127.584 47.6582M191.658 46.8119L191.65 46.8501" stroke="#577C8E" stroke-width="7" stroke-linecap="round" stroke-linejoin="round"/>
<path d="M167.142 39.8039C163.8 43.1015 163.014 46.922 164.782 51.2653" stroke="#577C8E" stroke-width="7" stroke-linecap="round" stroke-linejoin="round"/>
<path d="M189.439 32.1836C184.254 36.1704 180.682 41.8837 179.375 48.2795C178.045 54.6904 179.08 61.3645 182.29 67.0754" stroke="#577C8E" stroke-width="7" stroke-linecap="round" stroke-linejoin="round"/>
<path d="M131.519 28.5481C154.282 67.6345 179.97 79.3334 206.199 53.7772C192.185 20.009 163.952 20.677 127.584 47.6582M191.658 46.8119L191.65 46.8501" stroke="#577C8E" stroke-width="7" stroke-linecap="round" stroke-linejoin="round"/>
<path d="M167.142 39.8039C163.8 43.1015 163.014 46.922 164.782 51.2653" stroke="#577C8E" stroke-width="7" stroke-linecap="round" stroke-linejoin="round"/>
<path d="M307.189 4.4288C303.61 9.89484 302.124 16.4621 303.002 22.9305C303.863 29.4205 307.044 35.3828 311.961 39.7218" stroke="#577C8E" stroke-width="7" stroke-linecap="round" stroke-linejoin="round"/>
<path d="M251.298 20.0057C285.7 49.442 313.818 52.058 330.146 19.3176C305.762 -7.96859 279.323 1.92867 253.893 39.3419M314.116 17.5131L314.121 17.5518" stroke="#577C8E" stroke-width="7" stroke-linecap="round" stroke-linejoin="round"/>
<path d="M288.652 18.9423C286.585 23.1528 287.104 27.0185 290.208 30.5393" stroke="#577C8E" stroke-width="7" stroke-linecap="round" stroke-linejoin="round"/>
<path d="M436.44 32.1837C431.255 36.1705 427.683 41.8838 426.376 48.2797C425.046 54.6905 426.081 61.3646 429.291 67.0756" stroke="#577C8E" stroke-width="7" stroke-linecap="round" stroke-linejoin="round"/>
<path d="M378.52 28.5482C401.283 67.6346 426.97 79.3334 453.2 53.7772C439.186 20.009 410.953 20.677 374.585 47.6582M438.659 46.812L438.651 46.8502" stroke="#577C8E" stroke-width="7" stroke-linecap="round" stroke-linejoin="round"/>
<path d="M414.143 39.804C410.801 43.1016 410.015 46.9221 411.783 51.2654" stroke="#577C8E" stroke-width="7" stroke-linecap="round" stroke-linejoin="round"/>
<path d="M553.948 4.4288C550.369 9.89484 548.883 16.4621 549.76 22.9305C550.621 29.4205 553.803 35.3828 558.72 39.7218" stroke="#577C8E" stroke-width="7" stroke-linecap="round" stroke-linejoin="round"/>
<path d="M498.056 20.0057C532.459 49.442 560.577 52.058 576.905 19.3176C552.521 -7.96859 526.082 1.92867 500.652 39.3419M560.874 17.5131L560.88 17.5518" stroke="#577C8E" stroke-width="7" stroke-linecap="round" stroke-linejoin="round"/>
<path d="M535.41 18.9423C533.344 23.1528 533.863 27.0185 536.967 30.5393" stroke="#577C8E" stroke-width="7" stroke-linecap="round" stroke-linejoin="round"/>
<path d="M683.198 32.1837C678.014 36.1705 674.442 41.8838 673.135 48.2797C671.804 54.6905 672.839 61.3646 676.05 67.0756" stroke="#577C8E" stroke-width="7" stroke-linecap="round" stroke-linejoin="round"/>
<path d="M625.279 28.5482C648.042 67.6346 673.729 79.3334 699.959 53.7772C685.945 20.009 657.711 20.677 621.344 47.6582M685.418 46.812L685.41 46.8502" stroke="#577C8E" stroke-width="7" stroke-linecap="round" stroke-linejoin="round"/>
<path d="M660.902 39.804C657.56 43.1016 656.774 46.9221 658.542 51.2654" stroke="#577C8E" stroke-width="7" stroke-linecap="round" stroke-linejoin="round"/>
<path d="M794.688 14.4288C791.109 19.8948 789.623 26.4621 790.501 32.9305C791.362 39.4205 794.543 45.3828 799.46 49.7218" stroke="#577C8E" stroke-width="7" stroke-linecap="round" stroke-linejoin="round"/>
<path d="M738.797 30.0057C773.199 59.442 801.317 62.058 817.645 29.3176C793.261 2.03141 766.822 11.9287 741.392 49.3419M801.615 27.5131L801.62 27.5518" stroke="#577C8E" stroke-width="7" stroke-linecap="round" stroke-linejoin="round"/>
<path d="M776.151 28.9422C774.084 33.1527 774.603 37.0184 777.707 40.5393" stroke="#577C8E" stroke-width="7" stroke-linecap="round" stroke-linejoin="round"/>
<path d="M923.939 42.1837C918.754 46.1705 915.182 51.8838 913.875 58.2797C912.545 64.6905 913.58 71.3646 916.79 77.0756" stroke="#577C8E" stroke-width="7" stroke-linecap="round" stroke-linejoin="round"/>
<path d="M866.019 38.5482C888.782 77.6346 914.47 89.3334 940.699 63.7772C926.685 30.009 898.452 30.677 862.084 57.6582M926.158 56.812L926.15 56.8502" stroke="#577C8E" stroke-width="7" stroke-linecap="round" stroke-linejoin="round"/>
<path d="M901.642 49.804C898.3 53.1016 897.514 56.9221 899.282 61.2654" stroke="#577C8E" stroke-width="7" stroke-linecap="round" stroke-linejoin="round"/>
<path d="M1041.69 14.4289C1038.11 19.8949 1036.62 26.4622 1037.5 32.9306C1038.36 39.4206 1041.54 45.3829 1046.46 49.7219" stroke="#577C8E" stroke-width="7" stroke-linecap="round" stroke-linejoin="round"/>
<path d="M985.797 30.0058C1020.2 59.442 1048.32 62.058 1064.65 29.3177C1040.26 2.03147 1013.82 11.9287 988.393 49.342M1048.62 27.5132L1048.62 27.5518" stroke="#577C8E" stroke-width="7" stroke-linecap="round" stroke-linejoin="round"/>
<path d="M1023.15 28.9423C1021.09 33.1528 1021.6 37.0185 1024.71 40.5394" stroke="#577C8E" stroke-width="7" stroke-linecap="round" stroke-linejoin="round"/>
<path d="M1170.94 42.1838C1165.76 46.1706 1162.18 51.8839 1160.88 58.2798C1159.55 64.6906 1160.58 71.3647 1163.79 77.0757" stroke="#577C8E" stroke-width="7" stroke-linecap="round" stroke-linejoin="round"/>
<path d="M1113.02 38.5483C1135.78 77.6347 1161.47 89.3336 1187.7 63.7773C1173.69 30.0092 1145.45 30.6772 1109.08 57.6584M1173.16 56.8121L1173.15 56.8503" stroke="#577C8E" stroke-width="7" stroke-linecap="round" stroke-linejoin="round"/>
<path d="M1148.64 49.8041C1145.3 53.1018 1144.51 56.9222 1146.28 61.2656" stroke="#577C8E" stroke-width="7" stroke-linecap="round" stroke-linejoin="round"/>
<path d="M1288.45 14.4289C1284.87 19.8949 1283.38 26.4622 1284.26 32.9306C1285.12 39.4206 1288.3 45.3829 1293.22 49.7219" stroke="#577C8E" stroke-width="7" stroke-linecap="round" stroke-linejoin="round"/>
<path d="M1232.56 30.0058C1266.96 59.442 1295.08 62.058 1311.4 29.3177C1287.02 2.03147 1260.58 11.9287 1235.15 49.342M1295.37 27.5132L1295.38 27.5518" stroke="#577C8E" stroke-width="7" stroke-linecap="round" stroke-linejoin="round"/>
<path d="M1269.91 28.9423C1267.84 33.1528 1268.36 37.0185 1271.47 40.5394" stroke="#577C8E" stroke-width="7" stroke-linecap="round" stroke-linejoin="round"/>
</svg>
