<svg width="333" height="73" viewBox="0 0 333 73" fill="none" xmlns="http://www.w3.org/2000/svg">
<path d="M65.624 32.1836C60.4557 36.1704 56.8945 41.8838 55.5911 48.2796C54.2649 54.6904 55.2968 61.3645 58.4972 67.0755" stroke="#577C8E" stroke-width="7" stroke-linecap="round" stroke-linejoin="round"/>
<path d="M7.88237 28.5481C30.5758 67.6345 56.1839 79.3334 82.3328 53.7772C68.3621 20.009 40.2153 20.677 3.95943 47.6582M67.8368 46.8119L67.8289 46.8501" stroke="#577C8E" stroke-width="7" stroke-linecap="round" stroke-linejoin="round"/>
<path d="M43.3958 39.8039C40.0646 43.1016 39.2803 46.9221 41.043 51.2654" stroke="#577C8E" stroke-width="7" stroke-linecap="round" stroke-linejoin="round"/>
<path d="M182.771 4.42874C179.203 9.89478 177.721 16.462 178.596 22.9304C179.454 29.4205 182.626 35.3828 187.528 39.7218" stroke="#577C8E" stroke-width="7" stroke-linecap="round" stroke-linejoin="round"/>
<path d="M127.051 20.0056C161.347 49.4419 189.379 52.0579 205.657 19.3176C181.348 -7.96865 154.99 1.92861 129.638 39.3419M189.676 17.5131L189.681 17.5517" stroke="#577C8E" stroke-width="7" stroke-linecap="round" stroke-linejoin="round"/>
<path d="M164.29 18.9422C162.23 23.1527 162.748 27.0184 165.842 30.5393" stroke="#577C8E" stroke-width="7" stroke-linecap="round" stroke-linejoin="round"/>
<path d="M311.624 32.1836C306.456 36.1704 302.894 41.8838 301.591 48.2796C300.265 54.6904 301.297 61.3645 304.497 67.0755" stroke="#577C8E" stroke-width="7" stroke-linecap="round" stroke-linejoin="round"/>
<path d="M253.882 28.5481C276.576 67.6345 302.184 79.3334 328.333 53.7772C314.362 20.009 286.215 20.677 249.959 47.6582M313.837 46.8119L313.829 46.8501" stroke="#577C8E" stroke-width="7" stroke-linecap="round" stroke-linejoin="round"/>
<path d="M289.396 39.8039C286.065 43.1016 285.28 46.9221 287.043 51.2654" stroke="#577C8E" stroke-width="7" stroke-linecap="round" stroke-linejoin="round"/>
</svg>
