<svg width="702" height="75" viewBox="0 0 702 75" fill="none" xmlns="http://www.w3.org/2000/svg">
<path d="M60.0551 5.17159C56.4538 10.7341 54.9493 17.4114 55.8164 23.9833C56.6667 30.5771 59.846 36.6298 64.7699 41.0291" stroke="#577C8E" stroke-width="7" stroke-linecap="round" stroke-linejoin="round"/>
<path d="M4.27378 21.1016C38.5339 50.8568 66.5804 53.4486 82.9364 20.239C58.6661 -7.35861 32.2695 2.72562 6.82319 40.6893M66.9478 18.4441L66.9529 18.4833" stroke="#577C8E" stroke-width="7" stroke-linecap="round" stroke-linejoin="round"/>
<path d="M41.5455 19.9227C39.4631 24.2063 39.9758 28.134 43.0837 31.7058" stroke="#577C8E" stroke-width="7" stroke-linecap="round" stroke-linejoin="round"/>
<path d="M188.865 33.4007C183.671 37.4374 180.101 43.234 178.807 49.731C177.49 56.2433 178.549 63.0302 181.79 68.8447" stroke="#577C8E" stroke-width="7" stroke-linecap="round" stroke-linejoin="round"/>
<path d="M131.045 29.6438C153.87 69.2894 179.533 81.2122 205.627 55.4132C191.547 21.1787 163.38 21.7707 127.175 48.9822M191.1 48.317L191.092 48.3556" stroke="#577C8E" stroke-width="7" stroke-linecap="round" stroke-linejoin="round"/>
<path d="M166.637 41.1321C163.29 44.4741 162.511 48.3552 164.3 52.7755" stroke="#577C8E" stroke-width="7" stroke-linecap="round" stroke-linejoin="round"/>
<path d="M188.865 33.4007C183.671 37.4374 180.101 43.234 178.807 49.731C177.49 56.2433 178.549 63.0302 181.79 68.8447" stroke="#577C8E" stroke-width="7" stroke-linecap="round" stroke-linejoin="round"/>
<path d="M131.045 29.6438C153.87 69.2894 179.533 81.2122 205.627 55.4132C191.547 21.1787 163.38 21.7707 127.175 48.9822M191.1 48.317L191.092 48.3556" stroke="#577C8E" stroke-width="7" stroke-linecap="round" stroke-linejoin="round"/>
<path d="M166.637 41.1321C163.29 44.4741 162.511 48.3552 164.3 52.7755" stroke="#577C8E" stroke-width="7" stroke-linecap="round" stroke-linejoin="round"/>
<path d="M306.297 5.17166C302.695 10.7342 301.191 17.4115 302.058 23.9833C302.908 30.5772 306.087 36.6298 311.011 41.0291" stroke="#577C8E" stroke-width="7" stroke-linecap="round" stroke-linejoin="round"/>
<path d="M250.515 21.1017C284.775 50.8569 312.822 53.4487 329.178 20.2391C304.908 -7.35855 278.511 2.72568 253.065 40.6894M313.189 18.4442L313.194 18.4834" stroke="#577C8E" stroke-width="7" stroke-linecap="round" stroke-linejoin="round"/>
<path d="M287.787 19.9228C285.705 24.2064 286.217 28.134 289.325 31.7058" stroke="#577C8E" stroke-width="7" stroke-linecap="round" stroke-linejoin="round"/>
<path d="M435.107 33.4007C429.913 37.4375 426.343 43.234 425.049 49.7311C423.732 56.2433 424.791 63.0302 428.031 68.8447" stroke="#577C8E" stroke-width="7" stroke-linecap="round" stroke-linejoin="round"/>
<path d="M377.286 29.6438C400.112 69.2895 425.774 81.2122 451.869 55.4133C437.788 21.1788 409.621 21.7707 373.416 48.9823M437.341 48.317L437.333 48.3557" stroke="#577C8E" stroke-width="7" stroke-linecap="round" stroke-linejoin="round"/>
<path d="M412.879 41.1321C409.532 44.4741 408.753 48.3553 410.542 52.7756" stroke="#577C8E" stroke-width="7" stroke-linecap="round" stroke-linejoin="round"/>
<path d="M552.297 5.17166C548.695 10.7342 547.191 17.4115 548.058 23.9833C548.908 30.5772 552.087 36.6298 557.011 41.0291" stroke="#577C8E" stroke-width="7" stroke-linecap="round" stroke-linejoin="round"/>
<path d="M496.515 21.1017C530.776 50.8569 558.822 53.4487 575.178 20.2391C550.908 -7.35855 524.511 2.72568 499.065 40.6894M559.189 18.4442L559.194 18.4834" stroke="#577C8E" stroke-width="7" stroke-linecap="round" stroke-linejoin="round"/>
<path d="M533.787 19.9228C531.705 24.2064 532.217 28.134 535.325 31.7058" stroke="#577C8E" stroke-width="7" stroke-linecap="round" stroke-linejoin="round"/>
<path d="M681.107 33.4007C675.913 37.4375 672.343 43.234 671.049 49.7311C669.732 56.2433 670.791 63.0302 674.031 68.8447" stroke="#577C8E" stroke-width="7" stroke-linecap="round" stroke-linejoin="round"/>
<path d="M623.286 29.6438C646.112 69.2895 671.774 81.2122 697.869 55.4133C683.788 21.1788 655.621 21.7707 619.416 48.9823M683.341 48.317L683.333 48.3557" stroke="#577C8E" stroke-width="7" stroke-linecap="round" stroke-linejoin="round"/>
<path d="M658.879 41.1321C655.532 44.4741 654.753 48.3553 656.542 52.7756" stroke="#577C8E" stroke-width="7" stroke-linecap="round" stroke-linejoin="round"/>
</svg>
