<svg width="37" height="37" viewBox="0 0 37 37" fill="none" xmlns="http://www.w3.org/2000/svg">
<circle cx="18.5" cy="18.5" r="17.5" fill="#FFFCF9" stroke="#015582" stroke-width="2"/>
<path d="M12 19C12.7911 19 13.5645 19.2346 14.2223 19.6741C14.8801 20.1136 15.3928 20.7384 15.6955 21.4693C15.9983 22.2002 16.0775 23.0044 15.9231 23.7804C15.7688 24.5563 15.3878 25.269 14.8284 25.8284C14.269 26.3878 13.5563 26.7688 12.7804 26.9231C12.0044 27.0775 11.2002 26.9983 10.4693 26.6955C9.73836 26.3928 9.11365 25.8801 8.67412 25.2223C8.2346 24.5645 8 23.7911 8 23L8.005 22.8C8.05631 21.775 8.4996 20.809 9.24319 20.1017C9.98677 19.3944 10.9738 19 12 19ZM26 19C26.7911 19 27.5645 19.2346 28.2223 19.6741C28.8801 20.1136 29.3928 20.7384 29.6955 21.4693C29.9983 22.2002 30.0775 23.0044 29.9231 23.7804C29.7688 24.5563 29.3878 25.269 28.8284 25.8284C28.269 26.3878 27.5563 26.7688 26.7804 26.9231C26.0044 27.0775 25.2002 26.9983 24.4693 26.6955C23.7384 26.3928 23.1136 25.8801 22.6741 25.2223C22.2346 24.5645 22 23.7911 22 23L22.005 22.8C22.0563 21.775 22.4996 20.809 23.2432 20.1017C23.9868 19.3944 24.9738 19 26 19Z" fill="#015582"/>
<path d="M21.832 12.445L23.535 15H26C26.2449 15 26.4813 15.09 26.6644 15.2527C26.8474 15.4155 26.9644 15.6397 26.993 15.883L27 16C27 16.2652 26.8947 16.5196 26.7071 16.7071C26.5196 16.8946 26.2652 17 26 17H23C22.8354 17 22.6734 16.9594 22.5282 16.8818C22.3831 16.8042 22.2594 16.6919 22.168 16.555L20.772 14.462L17.497 17.082L19.707 19.292C19.8626 19.4478 19.9625 19.6506 19.991 19.869L20 20V24C20 24.2652 19.8947 24.5196 19.7071 24.7071C19.5196 24.8946 19.2652 25 19 25C18.7348 25 18.4804 24.8946 18.2929 24.7071C18.1054 24.5196 18 24.2652 18 24V20.415L15.293 17.707C15.1075 17.5213 15.0025 17.27 15.0007 17.0075C14.9988 16.7451 15.1002 16.4924 15.283 16.304L15.375 16.219L20.375 12.219C20.4832 12.1324 20.6083 12.0692 20.7423 12.0334C20.8763 11.9977 21.0162 11.9902 21.1532 12.0115C21.2902 12.0327 21.4213 12.0823 21.5382 12.1569C21.655 12.2315 21.7551 12.3296 21.832 12.445ZM24 8C24.3956 8 24.7823 8.1173 25.1111 8.33706C25.44 8.55682 25.6964 8.86918 25.8478 9.23463C25.9991 9.60009 26.0387 10.0022 25.9616 10.3902C25.8844 10.7781 25.6939 11.1345 25.4142 11.4142C25.1345 11.6939 24.7782 11.8844 24.3902 11.9616C24.0022 12.0387 23.6001 11.9991 23.2346 11.8478C22.8692 11.6964 22.5568 11.44 22.3371 11.1111C22.1173 10.7822 22 10.3956 22 10L22.005 9.85C22.0429 9.34684 22.2695 8.87659 22.6395 8.5335C23.0094 8.19041 23.4954 7.99984 24 8Z" fill="#015582"/>
</svg>
