<svg width="37" height="37" viewBox="0 0 37 37" fill="none" xmlns="http://www.w3.org/2000/svg">
<circle cx="18.5" cy="18.5" r="17.5" fill="#FFFCF9" stroke="#015582" stroke-width="2"/>
<path d="M10.743 9.816C10.7616 9.59033 10.8664 9.38049 11.0357 9.23014C11.205 9.07979 11.4258 9.00049 11.6521 9.00873C11.8784 9.01697 12.0928 9.11212 12.2507 9.2744C12.4086 9.43667 12.4979 9.65357 12.5 9.88V14.374C12.5 14.5398 12.5658 14.6987 12.6831 14.8159C12.8003 14.9332 12.9592 14.999 13.125 14.999C13.2908 14.999 13.4497 14.9332 13.5669 14.8159C13.6842 14.6987 13.75 14.5398 13.75 14.374V9.75C13.75 9.55109 13.829 9.36032 13.9697 9.21967C14.1103 9.07902 14.3011 9 14.5 9C14.6989 9 14.8897 9.07902 15.0303 9.21967C15.171 9.36032 15.25 9.55109 15.25 9.75V14.374C15.25 14.5398 15.3158 14.6987 15.4331 14.8159C15.5503 14.9332 15.7092 14.999 15.875 14.999C16.0408 14.999 16.1997 14.9332 16.3169 14.8159C16.4342 14.6987 16.5 14.5398 16.5 14.374V9.88C16.5021 9.65357 16.5914 9.43667 16.7493 9.2744C16.9072 9.11212 17.1216 9.01697 17.3479 9.00873C17.5742 9.00049 17.795 9.07979 17.9643 9.23014C18.1336 9.38049 18.2384 9.59033 18.257 9.816C18.3 10.428 18.5 13.37 18.5 15C18.5 16.35 17.83 17.544 16.808 18.267C16.592 18.42 16.54 18.582 16.545 18.664C16.668 20.542 17 25.682 17 26.497C17 27.16 16.7366 27.7959 16.2678 28.2648C15.7989 28.7336 15.163 28.997 14.5 28.997C13.837 28.997 13.2011 28.7336 12.7322 28.2648C12.2634 27.7959 12 27.16 12 26.497C12 25.681 12.332 20.542 12.455 18.664C12.46 18.582 12.408 18.42 12.192 18.267C11.6691 17.8976 11.2425 17.4081 10.9481 16.8396C10.6537 16.2711 10.5 15.6402 10.5 15C10.5 13.37 10.7 10.428 10.743 9.816ZM20 14.75C20 13.225 20.6058 11.7625 21.6841 10.6841C22.7625 9.6058 24.225 9 25.75 9C25.9489 9 26.1397 9.07902 26.2803 9.21967C26.421 9.36032 26.5 9.55109 26.5 9.75V18.25C26.5 18.568 26.606 20.145 26.725 21.892L26.73 21.975C26.86 23.883 27 25.958 27 26.497C27 27.16 26.7366 27.7959 26.2678 28.2648C25.7989 28.7336 25.163 28.997 24.5 28.997C23.837 28.997 23.2011 28.7336 22.7322 28.2648C22.2634 27.7959 22 27.16 22 26.497C22 25.983 22.128 23.886 22.252 21.963C22.314 20.992 22.377 20.051 22.424 19.353L22.447 19H21.75C21.5202 19 21.2926 18.9547 21.0803 18.8668C20.868 18.7788 20.6751 18.6499 20.5126 18.4874C20.3501 18.3249 20.2212 18.132 20.1332 17.9197C20.0453 17.7074 20 17.4798 20 17.25V14.75Z" fill="#015582"/>
</svg>
