<svg width="27" height="27" viewBox="0 0 27 27" fill="none" xmlns="http://www.w3.org/2000/svg">
<path d="M9.28125 5.0625V1.6875C9.28125 1.46372 9.37015 1.24911 9.52838 1.09088C9.68662 0.932645 9.90123 0.84375 10.125 0.84375C10.3488 0.84375 10.5634 0.932645 10.7216 1.09088C10.8799 1.24911 10.9688 1.46372 10.9688 1.6875V5.0625C10.9688 5.28628 10.8799 5.50089 10.7216 5.65912C10.5634 5.81736 10.3488 5.90625 10.125 5.90625C9.90123 5.90625 9.68662 5.81736 9.52838 5.65912C9.37015 5.50089 9.28125 5.28628 9.28125 5.0625ZM13.5 5.90625C13.7238 5.90625 13.9384 5.81736 14.0966 5.65912C14.2549 5.50089 14.3438 5.28628 14.3438 5.0625V1.6875C14.3438 1.46372 14.2549 1.24911 14.0966 1.09088C13.9384 0.932645 13.7238 0.84375 13.5 0.84375C13.2762 0.84375 13.0616 0.932645 12.9034 1.09088C12.7451 1.24911 12.6563 1.46372 12.6563 1.6875V5.0625C12.6563 5.28628 12.7451 5.50089 12.9034 5.65912C13.0616 5.81736 13.2762 5.90625 13.5 5.90625ZM16.875 5.90625C17.0988 5.90625 17.3134 5.81736 17.4716 5.65912C17.6299 5.50089 17.7188 5.28628 17.7188 5.0625V1.6875C17.7188 1.46372 17.6299 1.24911 17.4716 1.09088C17.3134 0.932645 17.0988 0.84375 16.875 0.84375C16.6512 0.84375 16.4366 0.932645 16.2784 1.09088C16.1201 1.24911 16.0313 1.46372 16.0313 1.6875V5.0625C16.0313 5.28628 16.1201 5.50089 16.2784 5.65912C16.4366 5.81736 16.6512 5.90625 16.875 5.90625ZM26.8313 9.61875C26.697 9.43973 26.4971 9.32138 26.2756 9.28973C26.0541 9.25808 25.829 9.31573 25.65 9.45L23.625 10.9688V8.4375C23.625 8.21372 23.5361 7.99911 23.3779 7.84088C23.2196 7.68264 23.005 7.59375 22.7813 7.59375H4.21875C3.99498 7.59375 3.78037 7.68264 3.62213 7.84088C3.4639 7.99911 3.375 8.21372 3.375 8.4375V10.9688L1.35 9.45C1.17098 9.31573 0.945956 9.25808 0.724429 9.28973C0.502902 9.32138 0.303019 9.43973 0.168753 9.61875C0.0344876 9.79777 -0.0231632 10.0228 0.00848356 10.2443C0.0401303 10.4659 0.158482 10.6657 0.337503 10.8L3.375 13.0781V19.4062C3.375 20.3014 3.73058 21.1598 4.36352 21.7927C4.99645 22.4257 5.8549 22.7812 6.75 22.7812H20.25C21.1451 22.7812 22.0036 22.4257 22.6365 21.7927C23.2694 21.1598 23.625 20.3014 23.625 19.4062V13.0781L26.6625 10.8C26.7511 10.7335 26.8258 10.6502 26.8823 10.5549C26.9387 10.4595 26.9759 10.354 26.9915 10.2443C27.0072 10.1346 27.0011 10.0229 26.9736 9.9156C26.9461 9.80826 26.8977 9.70739 26.8313 9.61875Z" fill="#015582"/>
</svg>
