<svg width="37" height="37" viewBox="0 0 37 37" fill="none" xmlns="http://www.w3.org/2000/svg">
<circle cx="18.5" cy="18.5" r="17.5" fill="#FFFCF9" stroke="#015582" stroke-width="2"/>
<path d="M14.2813 10.0625V6.6875C14.2813 6.46372 14.3701 6.24911 14.5284 6.09088C14.6866 5.93264 14.9012 5.84375 15.125 5.84375C15.3488 5.84375 15.5634 5.93264 15.7216 6.09088C15.8799 6.24911 15.9688 6.46372 15.9688 6.6875V10.0625C15.9688 10.2863 15.8799 10.5009 15.7216 10.6591C15.5634 10.8174 15.3488 10.9062 15.125 10.9062C14.9012 10.9062 14.6866 10.8174 14.5284 10.6591C14.3701 10.5009 14.2813 10.2863 14.2813 10.0625ZM18.5 10.9062C18.7238 10.9062 18.9384 10.8174 19.0966 10.6591C19.2549 10.5009 19.3438 10.2863 19.3438 10.0625V6.6875C19.3438 6.46372 19.2549 6.24911 19.0966 6.09088C18.9384 5.93264 18.7238 5.84375 18.5 5.84375C18.2762 5.84375 18.0616 5.93264 17.9034 6.09088C17.7451 6.24911 17.6563 6.46372 17.6563 6.6875V10.0625C17.6563 10.2863 17.7451 10.5009 17.9034 10.6591C18.0616 10.8174 18.2762 10.9062 18.5 10.9062ZM21.875 10.9062C22.0988 10.9062 22.3134 10.8174 22.4716 10.6591C22.6299 10.5009 22.7188 10.2863 22.7188 10.0625V6.6875C22.7188 6.46372 22.6299 6.24911 22.4716 6.09088C22.3134 5.93264 22.0988 5.84375 21.875 5.84375C21.6512 5.84375 21.4366 5.93264 21.2784 6.09088C21.1201 6.24911 21.0313 6.46372 21.0313 6.6875V10.0625C21.0313 10.2863 21.1201 10.5009 21.2784 10.6591C21.4366 10.8174 21.6512 10.9062 21.875 10.9062ZM31.8313 14.6187C31.697 14.4397 31.4971 14.3214 31.2756 14.2897C31.0541 14.2581 30.829 14.3157 30.65 14.45L28.625 15.9688V13.4375C28.625 13.2137 28.5361 12.9991 28.3779 12.8409C28.2196 12.6826 28.005 12.5938 27.7813 12.5938H9.21875C8.99498 12.5938 8.78037 12.6826 8.62213 12.8409C8.4639 12.9991 8.375 13.2137 8.375 13.4375V15.9688L6.35 14.45C6.17098 14.3157 5.94596 14.2581 5.72443 14.2897C5.5029 14.3214 5.30302 14.4397 5.16875 14.6187C5.03449 14.7978 4.97684 15.0228 5.00848 15.2443C5.04013 15.4659 5.15848 15.6657 5.3375 15.8L8.375 18.0781V24.4062C8.375 25.3014 8.73058 26.1598 9.36352 26.7927C9.99645 27.4257 10.8549 27.7812 11.75 27.7812H25.25C26.1451 27.7812 27.0036 27.4257 27.6365 26.7927C28.2694 26.1598 28.625 25.3014 28.625 24.4062V18.0781L31.6625 15.8C31.7511 15.7335 31.8258 15.6502 31.8823 15.5549C31.9387 15.4595 31.9759 15.354 31.9915 15.2443C32.0072 15.1346 32.0011 15.0229 31.9736 14.9156C31.9461 14.8083 31.8977 14.7074 31.8313 14.6187Z" fill="#015582"/>
</svg>
