<svg width="24" height="24" viewBox="0 0 24 24" fill="none" xmlns="http://www.w3.org/2000/svg">
<path d="M1.25974 0.757781C1.12166 0.68872 0.966971 0.659798 0.813266 0.674304C0.659562 0.68881 0.513014 0.746162 0.390293 0.839836C0.267571 0.93351 0.173602 1.05975 0.119076 1.20418C0.0645489 1.34862 0.0516533 1.50546 0.0818556 1.65687L2.39638 9.65791C2.43954 9.80701 2.52389 9.94091 2.63975 10.0442C2.7556 10.1475 2.89826 10.216 3.05131 10.2419L12.4381 11.8141C12.8802 11.9015 12.8802 12.535 12.4381 12.6224L3.05131 14.1946C2.89826 14.2204 2.7556 14.289 2.63975 14.3923C2.52389 14.4956 2.43954 14.6295 2.39638 14.7786L0.0818556 22.7796C0.0516533 22.931 0.0645489 23.0879 0.119076 23.2323C0.173602 23.3767 0.267571 23.503 0.390293 23.5966C0.513014 23.6903 0.659562 23.7477 0.813266 23.7622C0.966971 23.7767 1.12166 23.7478 1.25974 23.6787L22.7058 12.9557C22.8427 12.8871 22.9577 12.7818 23.0381 12.6516C23.1185 12.5213 23.1611 12.3713 23.1611 12.2182C23.1611 12.0652 23.1185 11.9152 23.0381 11.7849C22.9577 11.6547 22.8427 11.5494 22.7058 11.4808L1.25974 0.757781Z" fill="#015582"/>
</svg>
