<svg width="32" height="32" viewBox="0 0 32 32" fill="none" xmlns="http://www.w3.org/2000/svg">
<path d="M2 24.5C2 25.4283 2.36875 26.3185 3.02513 26.9749C3.6815 27.6313 4.57174 28 5.5 28H26.5C27.4283 28 28.3185 27.6313 28.9749 26.9749C29.6313 26.3185 30 25.4283 30 24.5V14.875H2V24.5ZM6.125 19.75C6.125 19.2527 6.32254 18.7758 6.67417 18.4242C7.02581 18.0725 7.50272 17.875 8 17.875H11C11.4973 17.875 11.9742 18.0725 12.3258 18.4242C12.6775 18.7758 12.875 19.2527 12.875 19.75V21C12.875 21.4973 12.6775 21.9742 12.3258 22.3258C11.9742 22.6775 11.4973 22.875 11 22.875H8C7.50272 22.875 7.02581 22.6775 6.67417 22.3258C6.32254 21.9742 6.125 21.4973 6.125 21V19.75ZM26.5 6H5.5C4.57174 6 3.6815 6.36875 3.02513 7.02513C2.36875 7.6815 2 8.57174 2 9.5V11.125H30V9.5C30 8.57174 29.6313 7.6815 28.9749 7.02513C28.3185 6.36875 27.4283 6 26.5 6Z" fill="black"/>
</svg>
