<svg width="89" height="120" viewBox="0 0 89 120" fill="none" xmlns="http://www.w3.org/2000/svg">
<path d="M21.404 81.1429C6.00666 69 -15.5496 37.4286 21.404 8.28571V1H67.596V8.28571C104.55 38.4 82.9933 69.4048 67.596 81.1429V87.2143H55.4402H44.5H33.5598H21.404V81.1429Z" fill="#B93F2B"/>
<path d="M21.404 81.1429C6.00666 69 -15.5496 37.4286 21.404 8.28571M21.404 81.1429C8.76199 54.9143 16.1365 21.6429 21.404 8.28571M21.404 81.1429H67.596M21.404 81.1429V87.2143M21.404 8.28571H67.596M21.404 8.28571V1H67.596V8.28571M67.596 8.28571C104.55 38.4 82.9933 69.4048 67.596 81.1429M67.596 8.28571C73.2687 21.6429 81.2105 54.9143 67.596 81.1429M67.596 81.1429V87.2143M67.596 87.2143V107.857M67.596 87.2143H55.4402M21.404 87.2143V107.857M21.404 87.2143H33.5598M33.5598 87.2143V120M33.5598 87.2143H44.5M55.4402 87.2143V120M55.4402 87.2143H44.5M44.5 87.2143V110.286" stroke="#7A2618" stroke-width="1.5"/>
</svg>
