<svg width="30" height="30" viewBox="0 0 30 30" fill="none" xmlns="http://www.w3.org/2000/svg">
<path d="M1.89074 10.5586V10.5386C1.89071 8.55555 2.46592 6.61695 3.54379 4.96734C4.62166 3.31774 6.1539 2.03104 7.9472 1.26958C9.7405 0.508123 11.7145 0.306018 13.6202 0.688765C15.5259 1.07151 17.2778 2.02197 18.655 3.42021C19.7386 2.87415 20.949 2.64455 22.1523 2.7568C23.3557 2.86904 24.5053 3.31876 25.474 4.05625C26.4427 4.79375 27.1929 5.79032 27.6417 6.93585C28.0905 8.08139 28.2204 9.33129 28.0171 10.5475C28.316 10.5758 28.6061 10.6668 28.8691 10.8146C29.1321 10.9625 29.3624 11.1641 29.5457 11.407C29.729 11.6498 29.8613 11.9285 29.9343 12.2259C30.0074 12.5232 30.0196 12.8328 29.9703 13.1352C28.9828 19.2006 26.5401 23.0397 22.6467 24.6548V26.1539C22.6467 27.0413 22.3014 27.8924 21.6868 28.5199C21.0722 29.1475 20.2387 29.5 19.3695 29.5H10.6301C9.76092 29.5 8.92734 29.1475 8.31273 28.5199C7.69813 27.8924 7.35284 27.0413 7.35284 26.1539V24.6548C3.45946 23.0397 1.0168 19.2006 0.0292565 13.1352C-0.0184042 12.8408 -0.00774707 12.5397 0.0605971 12.2496C0.128941 11.9595 0.253584 11.6864 0.427148 11.4463C0.600712 11.2063 0.819671 11.0043 1.07107 10.8522C1.32246 10.7001 1.60118 10.601 1.89074 10.5609V10.5586ZM4.07558 10.5386H6.26042C6.26042 9.05947 6.83589 7.64097 7.86024 6.5951C8.88458 5.54923 10.2739 4.96166 11.7225 4.96166C13.1712 4.96166 14.5605 5.54923 15.5848 6.5951C16.6092 7.64097 17.1846 9.05947 17.1846 10.5386H19.3695C19.3695 8.46784 18.5638 6.48193 17.1297 5.01771C15.6957 3.5535 13.7506 2.73091 11.7225 2.73091C9.69443 2.73091 7.7494 3.5535 6.31532 5.01771C4.88124 6.48193 4.07558 8.46784 4.07558 10.5386ZM8.44526 10.5386H14.9998C14.9998 9.65111 14.6545 8.8 14.0399 8.17248C13.4253 7.54496 12.5917 7.19242 11.7225 7.19242C10.8533 7.19242 10.0198 7.54496 9.40515 8.17248C8.79055 8.8 8.44526 9.65111 8.44526 10.5386ZM23.4464 10.5386H25.7863C25.9513 9.87931 25.9667 9.19031 25.8313 8.52407C25.6959 7.85783 25.4134 7.23194 25.0053 6.69407C24.5971 6.1562 24.0741 5.72056 23.476 5.42034C22.878 5.12012 22.2207 4.96324 21.5543 4.96166C21.0299 4.96166 20.5318 5.05535 20.0686 5.22712C20.4553 5.86066 20.7743 6.54327 21.019 7.25934C21.4352 7.15396 21.8724 7.17566 22.2766 7.32175C22.6808 7.46783 23.034 7.73188 23.2925 8.08111C23.5511 8.43034 23.7034 8.84939 23.7308 9.28625C23.7581 9.72312 23.6592 10.1586 23.4464 10.5386ZM20.4619 25.0385H9.53768V26.1539C9.53768 26.4497 9.65278 26.7334 9.85765 26.9426C10.0625 27.1517 10.3404 27.2692 10.6301 27.2692H19.3695C19.6592 27.2692 19.9371 27.1517 20.1419 26.9426C20.3468 26.7334 20.4619 26.4497 20.4619 26.1539V25.0385Z" fill="#FFFCF9"/>
</svg>
