<svg width="35" height="34" viewBox="0 0 35 34" fill="none" xmlns="http://www.w3.org/2000/svg">
<path fill-rule="evenodd" clip-rule="evenodd" d="M17.3545 3.4C14.9758 3.39956 12.6386 4.02303 10.5761 5.20817C8.51367 6.3933 6.79813 8.09866 5.60073 10.154C4.40334 12.2094 3.76597 14.5428 3.75224 16.9215C3.73851 19.3002 4.34891 21.6409 5.5225 23.7099C6.31574 22.679 7.33543 21.8443 8.50275 21.2704C9.67006 20.6964 10.9537 20.3986 12.2545 20.4H22.4545C23.7553 20.3986 25.0389 20.6964 26.2062 21.2704C27.3736 21.8443 28.3932 22.679 29.1865 23.7099C30.3601 21.6409 30.9705 19.3002 30.9567 16.9215C30.943 14.5428 30.3056 12.2094 29.1083 10.154C27.9109 8.09866 26.1953 6.3933 24.1329 5.20817C22.0704 4.02303 19.7332 3.39956 17.3545 3.4ZM30.8576 27.3292C31.0706 27.0515 31.2746 26.7671 31.4696 26.4758C33.3543 23.6754 34.3589 20.3755 34.3545 17C34.3545 7.6109 26.7436 0 17.3545 0C7.9654 0 0.35451 7.6109 0.35451 17C0.349152 20.7345 1.57858 24.366 3.85141 27.3292L3.84291 27.3598L4.44641 28.0619C6.04081 29.926 8.02046 31.4221 10.2489 32.4473C12.4773 33.4724 14.9016 34.0022 17.3545 34C17.7217 34 18.0866 33.9887 18.4493 33.966C21.5168 33.7726 24.4735 32.747 27.002 30.9995C28.2112 30.1653 29.3072 29.1779 30.2626 28.0619L30.8661 27.3598L30.8576 27.3292ZM17.3545 6.8C16.0019 6.8 14.7047 7.33732 13.7483 8.29375C12.7918 9.25019 12.2545 10.5474 12.2545 11.9C12.2545 13.2526 12.7918 14.5498 13.7483 15.5062C14.7047 16.4627 16.0019 17 17.3545 17C18.7071 17 20.0043 16.4627 20.9607 15.5062C21.9172 14.5498 22.4545 13.2526 22.4545 11.9C22.4545 10.5474 21.9172 9.25019 20.9607 8.29375C20.0043 7.33732 18.7071 6.8 17.3545 6.8Z" fill="#FFFCF9"/>
</svg>
