<svg width="33" height="34" viewBox="0 0 33 34" fill="none" xmlns="http://www.w3.org/2000/svg">
<path d="M16 18C19.866 18 23 14.866 23 11C23 7.13401 19.866 4 16 4C12.134 4 9 7.13401 9 11C9 14.866 12.134 18 16 18Z" fill="#FFFCF9"/>
<path d="M16.1773 21.9356C15.8195 21.9356 15.4644 21.9191 15.1142 21.8883C13.3068 21.7267 11.559 21.1599 10.0009 20.2298C8.44283 19.2997 7.11442 18.0304 6.11449 16.5162L0 27.4194H7.88303L11.8588 34L17.5161 21.8608C17.0716 21.9103 16.6246 21.9352 16.1773 21.9356ZM26.2539 16.5024C24.8059 18.6955 22.6845 20.3588 20.2093 21.2419L17.3906 27.3851L20.4959 34L24.4717 27.4194H32.3547L26.2539 16.5024Z" fill="#FFFCF9"/>
<path d="M16.1773 0C10.7346 0 6.3064 4.42821 6.3064 9.87092C6.3064 15.3136 10.7346 19.7418 16.1773 19.7418C21.62 19.7418 26.0482 15.3136 26.0482 9.87092C26.0482 4.42821 21.62 0 16.1773 0ZM16.1773 15.3548C15.0927 15.3548 14.0325 15.0331 13.1307 14.4306C12.2288 13.828 11.526 12.9715 11.1109 11.9695C10.6958 10.9675 10.5872 9.86484 10.7988 8.80108C11.0104 7.73732 11.5327 6.76019 12.2997 5.99326C13.0666 5.22633 14.0437 4.70404 15.1075 4.49245C16.1712 4.28085 17.2739 4.38945 18.2759 4.80451C19.2779 5.21957 20.1344 5.92245 20.737 6.82426C21.3395 7.72608 21.6612 8.78632 21.6612 9.87092C21.6595 11.3248 21.0812 12.7187 20.0532 13.7468C19.0251 14.7749 17.6312 15.3531 16.1773 15.3548Z" fill="#FFFCF9"/>
</svg>
