<svg width="34" height="34" viewBox="0 0 34 34" fill="none" xmlns="http://www.w3.org/2000/svg">
<path d="M24.0834 25.5C24.8349 25.5 25.5555 25.7985 26.0869 26.3298C26.6182 26.8612 26.9167 27.5819 26.9167 28.3333C26.9167 29.0848 26.6182 29.8054 26.0869 30.3368C25.5555 30.8681 24.8349 31.1666 24.0834 31.1666C23.332 31.1666 22.6113 30.8681 22.0799 30.3368C21.5486 29.8054 21.2501 29.0848 21.2501 28.3333C21.2501 26.7608 22.5109 25.5 24.0834 25.5ZM1.41675 2.83331H6.04925L7.38092 5.66665H28.3334C28.7091 5.66665 29.0695 5.8159 29.3352 6.08158C29.6008 6.34726 29.7501 6.70759 29.7501 7.08331C29.7501 7.32415 29.6792 7.56498 29.5801 7.79165L24.5084 16.9575C24.0267 17.8216 23.0917 18.4166 22.0292 18.4166H11.4751L10.2001 20.7258L10.1576 20.8958C10.1576 20.9897 10.1949 21.0798 10.2613 21.1462C10.3277 21.2127 10.4178 21.25 10.5117 21.25H26.9167V24.0833H9.91675C9.1653 24.0833 8.44463 23.7848 7.91328 23.2535C7.38193 22.7221 7.08342 22.0014 7.08342 21.25C7.08342 20.7541 7.21091 20.2866 7.42341 19.89L9.35008 16.4191L4.25008 5.66665H1.41675V2.83331ZM9.91675 25.5C10.6682 25.5 11.3889 25.7985 11.9202 26.3298C12.4516 26.8612 12.7501 27.5819 12.7501 28.3333C12.7501 29.0848 12.4516 29.8054 11.9202 30.3368C11.3889 30.8681 10.6682 31.1666 9.91675 31.1666C9.1653 31.1666 8.44463 30.8681 7.91328 30.3368C7.38193 29.8054 7.08342 29.0848 7.08342 28.3333C7.08342 26.7608 8.34425 25.5 9.91675 25.5ZM22.6667 15.5833L26.6051 8.49998H8.69841L12.0417 15.5833H22.6667Z" fill="black"/>
</svg>
