<svg width="34" height="34" viewBox="0 0 34 34" fill="none" xmlns="http://www.w3.org/2000/svg">
<path d="M24.0833 25.5C24.8347 25.5 25.5554 25.7985 26.0868 26.3298C26.6181 26.8612 26.9166 27.5819 26.9166 28.3333C26.9166 29.0848 26.6181 29.8054 26.0868 30.3368C25.5554 30.8681 24.8347 31.1666 24.0833 31.1666C23.3318 31.1666 22.6112 30.8681 22.0798 30.3368C21.5485 29.8054 21.25 29.0848 21.25 28.3333C21.25 26.7608 22.5108 25.5 24.0833 25.5ZM1.41663 2.83331H6.04913L7.38079 5.66665H28.3333C28.709 5.66665 29.0694 5.8159 29.335 6.08158C29.6007 6.34726 29.75 6.70759 29.75 7.08331C29.75 7.32415 29.6791 7.56498 29.58 7.79165L24.5083 16.9575C24.0266 17.8216 23.0916 18.4166 22.0291 18.4166H11.475L10.2 20.7258L10.1575 20.8958C10.1575 20.9897 10.1948 21.0798 10.2612 21.1462C10.3276 21.2127 10.4177 21.25 10.5116 21.25H26.9166V24.0833H9.91663C9.16518 24.0833 8.44451 23.7848 7.91316 23.2535C7.3818 22.7221 7.08329 22.0014 7.08329 21.25C7.08329 20.7541 7.21079 20.2866 7.42329 19.89L9.34996 16.4191L4.24996 5.66665H1.41663V2.83331ZM9.91663 25.5C10.6681 25.5 11.3887 25.7985 11.9201 26.3298C12.4514 26.8612 12.75 27.5819 12.75 28.3333C12.75 29.0848 12.4514 29.8054 11.9201 30.3368C11.3887 30.8681 10.6681 31.1666 9.91663 31.1666C9.16518 31.1666 8.44451 30.8681 7.91316 30.3368C7.3818 29.8054 7.08329 29.0848 7.08329 28.3333C7.08329 26.7608 8.34413 25.5 9.91663 25.5ZM22.6666 15.5833L26.605 8.49998H8.69829L12.0416 15.5833H22.6666Z" fill="black"/>
</svg>
