<svg width="34" height="34" viewBox="0 0 34 34" fill="none" xmlns="http://www.w3.org/2000/svg">
<path d="M10.6249 3.84906L2.83325 8.39514V30.4583L10.6249 27.2467V3.84906ZM13.4583 26.7891L15.9374 28.2526V23.7291C15.9371 22.0851 16.3606 20.4688 17.1671 19.0362C17.9736 17.6036 19.1359 16.4032 20.5416 15.5507V7.21223L13.4583 3.02881V26.7891ZM31.1666 3.54164V16.0253C30.0596 15.213 28.7912 14.6477 27.447 14.3679C26.1027 14.0881 24.7141 14.1001 23.3749 14.4032V6.75323L31.1666 3.54164ZM25.4999 33.5764L25.2123 33.3866C24.9517 33.2151 24.691 33.0437 24.4374 32.8596C23.4822 32.1546 22.5974 31.359 21.7953 30.4838C20.3858 28.934 18.7708 26.5639 18.7708 23.7291C18.7708 22.8455 18.9448 21.9704 19.283 21.154C19.6212 20.3376 20.1168 19.5958 20.7417 18.9709C21.3665 18.346 22.1084 17.8504 22.9248 17.5122C23.7412 17.174 24.6162 17 25.4999 17C26.3836 17 27.2586 17.174 28.0751 17.5122C28.8915 17.8504 29.6333 18.346 30.2582 18.9709C30.883 19.5958 31.3787 20.3376 31.7169 21.154C32.055 21.9704 32.2291 22.8455 32.2291 23.7291C32.2291 26.5639 30.6141 28.934 29.2045 30.4838C28.4024 31.359 27.5176 32.1546 26.5624 32.8596C26.3088 33.0437 26.0482 33.2137 25.7875 33.3866L25.4999 33.5764ZM27.2708 22.6666H23.7291V25.5H27.2708V22.6666Z" fill="black"/>
</svg>
