<svg width="24" height="24" viewBox="0 0 24 24" fill="none" xmlns="http://www.w3.org/2000/svg">
<path d="M22.8198 4.63711L15.2437 12.2133L22.8198 19.7894C23.2217 20.1913 23.4474 20.7363 23.4474 21.3046C23.4474 21.873 23.2217 22.418 22.8198 22.8199C22.4179 23.2217 21.8729 23.4475 21.3046 23.4475C20.7363 23.4475 20.1912 23.2217 19.7893 22.8199L12.2132 15.2437L4.63706 22.8199C4.2352 23.2217 3.69015 23.4475 3.12183 23.4475C2.55351 23.4475 2.00847 23.2217 1.6066 22.8199C1.20474 22.418 0.978975 21.873 0.978975 21.3046C0.978974 20.7363 1.20474 20.1913 1.6066 19.7894L9.18275 12.2133L1.6066 4.63711C1.20474 4.23525 0.978972 3.69021 0.978973 3.12188C0.978973 2.55356 1.20474 2.00852 1.6066 1.60666C2.00847 1.20479 2.55351 0.979027 3.12183 0.979027C3.69015 0.979027 4.2352 1.20479 4.63706 1.60666L12.2132 9.1828L19.7893 1.60666C20.1912 1.20479 20.7363 0.979027 21.3046 0.979028C21.8729 0.979029 22.4179 1.20479 22.8198 1.60666C23.2217 2.00852 23.4474 2.55356 23.4474 3.12189C23.4474 3.69021 23.2217 4.23525 22.8198 4.63711Z" fill="black"/>
</svg>
